<?xml version="1.0" encoding="utf-8"?>
<!-- Generator: Adobe Illustrator 26.0.3, SVG Export Plug-In . SVG Version: 6.00 Build 0)  -->
<svg version="1.1" id="Calque_1" xmlns="http://www.w3.org/2000/svg" xmlns:xlink="http://www.w3.org/1999/xlink" x="0px" y="0px"
	 viewBox="0 0 1080 1080" style="enable-background:new 0 0 1080 1080;" xml:space="preserve">
<style type="text/css">
	.st0{display:none;}
	.st1{display:inline;fill:#010200;}
	.st2{display:inline;}
	.st3{fill:#010200;}
	.st4{display:inline;fill:url(#SVGID_1_);}
	.st5{fill:url(#SVGID_00000093139171522041252940000007826262461607030920_);}
	.st6{fill:url(#SVGID_00000134931179573989305790000001096273331079359904_);}
	.st7{fill:url(#SVGID_00000044886106451421151210000012936901233596808066_);}
	.st8{fill:url(#SVGID_00000056417981546715088060000007150971490741887626_);}
	.st9{fill:url(#SVGID_00000116202695380295535080000009257287325602607805_);}
	.st10{fill:url(#SVGID_00000176736656334370259320000011750784470282809736_);}
	.st11{fill:url(#SVGID_00000151513251084328909230000003531603187968552595_);}
	.st12{fill:url(#SVGID_00000111185952099992817250000017881915162579064462_);}
	.st13{fill:url(#SVGID_00000174583521200259818810000017322704431111725187_);}
	.st14{fill:url(#SVGID_00000161604506444588643880000001143315729415817639_);}
	.st15{fill:url(#SVGID_00000104676008237937846100000002867316546683258784_);}
	.st16{fill:url(#SVGID_00000167389917364500059900000001355315030133431428_);}
	.st17{fill:url(#SVGID_00000114034144716966129630000016561251990307924911_);}
	.st18{fill:url(#SVGID_00000110445748062444662170000002722574090717542319_);}
	.st19{fill:url(#SVGID_00000026850549539795818240000007276265121737461436_);}
	.st20{fill:url(#SVGID_00000140713141770008864060000017873495588834674345_);}
	.st21{fill:url(#SVGID_00000120522987136741168440000014804903490728933023_);}
	.st22{fill:url(#SVGID_00000160902279382394153050000008057383899458415789_);}
	.st23{fill:url(#SVGID_00000027575602051380268110000013412483087669839744_);}
</style>
<g>
	<g id="Layer_3_3_">
	</g>
	<g id="Layer_2_4_">
		<g class="st0">
			<path class="st1" d="M5.8,394.7c1.7,0,1.7-2.5,0-2.5C4.1,392.2,4.1,394.7,5.8,394.7L5.8,394.7z"/>
		</g>
		<g>
			<g class="st0">
				<g class="st2">
					<g>
						<path class="st3" d="M110.8,1029.7c-4.6,4.2-10.6,6.2-17,6.2c-16.7,0-23.7-10.6-23.8-21.4c-0.1-10.8,7.6-21.8,23.8-21.8
							c6.1,0,11.9,2.1,16.5,6.3l-5.6,5c-2.9-2.7-6.9-3.9-10.8-3.9c-10.8,0-15.5,7.5-15.4,14.4c0.1,6.9,4.4,14,15.4,14
							c3.9,0,8.3-1.5,11.3-4.2L110.8,1029.7z"/>
						<path class="st3" d="M204.5,1014.5c-0.1,10.7-7.2,21.4-23,21.4s-23.1-10.5-23.1-21.4s7.6-21.8,23.1-21.8
							C196.9,992.7,204.6,1003.6,204.5,1014.5z M166.7,1014.6c0.2,6.8,4.2,14.1,14.7,14.1c10.6,0,14.5-7.3,14.7-14.1
							c0.1-7-4.1-14.8-14.7-14.8C170.9,999.8,166.6,1007.7,166.7,1014.6z"/>
						<path class="st3" d="M294.7,1004.9l-14.6,18h-1.7l-14.3-18v30.1h-8.5v-41.4h9.7l14,17.8l14-17.8h9.7v41.4h-8.5L294.7,1004.9
							L294.7,1004.9z"/>
						<path class="st3" d="M377.1,1022.7h-12.7v12.2h-8.5v-41.4c7.1,0,14.1-0.1,21.1-0.1C399,993.5,399.1,1022.7,377.1,1022.7z
							 M364.4,1015.6h12.7c10.8,0,10.8-14.7,0-14.7h-12.7V1015.6z"/>
						<path class="st3" d="M476,1027.1h-23.5l-3.8,7.8h-9.2l20.1-41.4h9.2l20.1,41.4h-9.2L476,1027.1z M464.2,1002.2l-8.3,17.6h16.7
							L464.2,1002.2z"/>
						<path class="st3" d="M567.2,993.5h8.5v41.5h-5.3v0.1l-23.6-28v27.9h-8.5v-41.4h6.9l22,25.7L567.2,993.5L567.2,993.5z"/>
						<path class="st3" d="M647.2,1010.6l11.9-17.1h10.2v0.4l-17.9,24v17.1h-8.5v-17.1l-17.2-24v-0.4h10.1L647.2,1010.6z"/>
						<path class="st3" d="M726.3,993.5v34.2h23.1v7.2h-31.5v-41.4H726.3z"/>
						<path class="st3" d="M842.9,1014.5c-0.1,10.7-7.2,21.4-23,21.4c-15.8,0-23.1-10.5-23.1-21.4s7.6-21.8,23.1-21.8
							C835.4,992.7,843.1,1003.6,842.9,1014.5z M805.2,1014.6c0.2,6.8,4.2,14.1,14.7,14.1s14.5-7.3,14.7-14.1
							c0.1-7-4.1-14.8-14.7-14.8C809.4,999.8,805,1007.7,805.2,1014.6z"/>
						<path class="st3" d="M927.3,1003.6c-3-2.7-7.5-4.1-11.4-4.1c-9.6,0-15.4,6.7-15.4,15.3c0,6.8,4.3,13.8,15.4,13.8
							c3.5,0,6.6-0.7,10.1-3.3v-7.3h-11.5v-7h19.2v17.5c-4.4,4.7-10,7.5-17.9,7.5c-16.9,0-23.7-10.2-23.7-21.1
							c0-11.7,7.9-22.4,23.7-22.4c6,0,12,2.1,16.7,6.3L927.3,1003.6z"/>
						<path class="st3" d="M1029.7,1014.5c-0.1,10.7-7.2,21.4-23,21.4c-15.8,0-23.1-10.5-23.1-21.4s7.6-21.8,23.1-21.8
							C1022.1,992.7,1029.8,1003.6,1029.7,1014.5z M991.9,1014.6c0.2,6.8,4.2,14.1,14.7,14.1s14.5-7.3,14.7-14.1
							c0.1-7-4.1-14.8-14.7-14.8C996.1,999.8,991.8,1007.7,991.9,1014.6z"/>
					</g>
					<g>
						<path class="st3" d="M359,1075.9h-12.9v-2.2h28.4v2.2h-12.9v30.5H359V1075.9z"/>
						<path class="st3" d="M443.6,1106.4l-3.9-8.1h-21.2l-3.9,8.1h-2.9l16-32.8h3l16,32.8H443.6z M438.6,1096l-9.6-20l-9.6,20H438.6
							z"/>
						<path class="st3" d="M513,1079.6c-3.1-2.8-7.4-4.2-11.4-4.2c-10.4,0-15.7,7-15.7,14.6c0,7.7,5.3,14.4,15.7,14.4
							c3.8,0,7.8-1.2,10.8-3.8v-9.2h-12.4v-2.2h15v12.3c-3.7,3.4-8.1,5.3-13.4,5.3c-12.1,0-18.3-7.8-18.3-16.7
							c-0.1-10.3,7.5-17,18.3-17c4.7,0,9.4,1.6,13,4.9L513,1079.6z"/>
						<path class="st3" d="M560.8,1073.6v30.4h20v2.4H558v-32.8H560.8z"/>
						<path class="st3" d="M621.6,1106.4v-32.8h2.7v32.8H621.6z"/>
						<path class="st3" d="M668.9,1073.6l23.9,27.2v-27.2h2.7v32.8h-1.1l-24-27.1v27.1h-2.7v-32.8H668.9z"/>
						<path class="st3" d="M741.7,1088.7h20.8v2.3h-20.8v12.9h22.5v2.4H739v-32.8h24.5v2.4h-21.9V1088.7z"/>
					</g>
				</g>
			</g>
			<path class="st3" d="M1011.6,726.9c13.4-5.1,21.8-4.7,25.4,1.1c3.5,5.8,3.7,13.8,0.6,23.9c-1.6,5.8-3.4,11.4-5.3,16.9
				c-2,5.4-4.1,11.1-6.5,16.9c-13.4,34.8-32.2,61.9-56.6,81.1c-24.4,19.2-50.7,28.9-79,28.9c-22,0-41.3-4-57.8-12
				c-16.5-8-30.5-18.3-41.9-31c-11.4-12.7-20.8-27.2-28.3-43.5c-7.5-16.3-12.8-32.8-15.9-49.5c-0.8-5.1-1.6-10-2.4-14.7
				c-0.8-4.7-1.6-9.6-2.4-14.7c-12.6,21.8-26.7,42.6-42.5,62.6c-15.7,20-33.6,37.6-53.7,52.8s-42.3,27.4-66.6,36.5
				c-24.4,9.1-51.5,13.6-81.4,13.6c-51.1,0-93.1-10.7-126.2-32.1c-33-21.4-57.8-49.7-74.3-84.9c-16.5-35.2-25.4-75.3-26.5-120.3
				c-1.2-45,4.5-91.1,17.1-138.3c-25.2-8-51.1-19.4-77.8-34.3c-26.7-14.9-50.9-32.5-72.5-52.8c-21.6-20.3-39.7-42.5-54.2-66.4
				c-14.5-23.9-22.2-49.3-23-76.2c-0.8-18.1,1.6-35.2,7.1-51.2c5.5-16,13.9-28.9,25.4-38.6c11.4-9.8,25.7-15.4,43-16.9
				c17.3-1.4,36.9,3.3,59,14.2c-11.8,16.7-16.9,35.9-15.3,57.7c0.8,18.9,5.5,36.8,14.2,53.9c8.6,17.1,19.8,32.8,33.6,47.4
				c13.7,14.5,28.9,27.8,45.4,39.7s33,22.3,49.5,31c26.7-57.3,59.7-105.9,99.1-145.9c39.3-39.9,80.8-71.7,124.4-95.3
				c43.6-23.6,87.6-39.9,132.1-49c44.4-9.1,85.5-12.1,123.2-9.3c36.1,2.9,67.4,10.9,93.7,23.9c26.3,13.1,44.6,30.1,54.8,51.2
				c10.2,21.1,10.8,45.7,1.8,74c-9,28.3-31.3,58.8-66.6,91.4c-1.6,19.6-2.8,39-3.5,58.2c-0.8,19.2-1.8,36.3-2.9,51.2
				c-1.2,14.9-2,27.2-2.4,37c-0.4,9.8-0.6,15.1-0.6,15.8c-3.1,27.6-5.7,58.1-7.7,91.4c-2,33.4-2.6,64.6-1.8,93.6
				c0,8.7,0.4,19.4,1.2,32.1c0.8,12.7,2.9,24.7,6.5,35.9c3.5,11.3,9.4,20.9,17.7,28.9c8.3,8,19.8,12,34.8,12
				c11,0,22.2-3.4,33.6-10.3c11.4-6.9,20.6-15.8,27.7-26.7c4.7-8,9.2-17,13.6-27.2C1004.7,750.5,1008.5,739.2,1011.6,726.9z
				 M740.4,533.1c0-1.4,0.2-8.2,0.6-20.1c0.4-12,1.4-27,2.9-45.2c-44.8,23.2-94.7,42.1-149.7,56.6c-55,14.5-111.6,21.1-169.8,19.6
				c-8.7,37-13.2,72.6-13.6,106.7c-0.4,34.1,3.3,64.2,11.2,90.4c7.8,26.1,20.2,46.8,37.1,62.1c16.9,15.2,38.3,22.9,64.3,22.9
				c22,0,43.4-5.3,64.3-15.8c20.8-10.5,40.3-24.1,58.4-40.8c18.1-16.7,34.8-35.7,50.1-57.2c15.3-21.4,28.9-43,40.7-64.8
				c-0.8-19.6-0.8-39,0-58.2C737.6,569.9,738.8,551.3,740.4,533.1z M755.7,296.9c1.6-17.4,6.9-31.6,15.9-42.5
				c9-10.9,20.2-18.7,33.6-23.4c13.4-4.7,27.9-6.3,43.6-4.9c15.7,1.5,30.7,6.2,44.8,14.2c-0.8,8-1.4,17.2-1.8,27.8
				c-0.4,10.5-1.4,21.6-2.9,33.2c11.8-18.9,17.5-36.5,17.1-52.8c-0.4-16.3-5.5-30.3-15.3-41.9c-9.8-11.6-23.8-20.7-41.9-27.2
				c-18.1-6.5-38.1-9.8-60.1-9.8c-26.7,0-56,5.1-87.8,15.2c-31.8,10.2-63.5,26.9-94.9,50.1c-31.4,23.2-61.1,54.1-89,92.5
				c-27.9,38.5-51.7,86.4-71.3,143.7c25.9,4.4,52.3,6.2,79,5.4c26.7-0.7,53.1-3.6,79-8.7c25.9-5.1,51.1-12,75.5-20.7
				c24.4-8.7,47.2-18.5,68.4-29.4c1.6-20.3,2.9-40.8,4.1-61.5C752.8,335.5,754.1,315.8,755.7,296.9z"/>
		</g>
	</g>
</g>
<g>
	<g id="Layer_3_00000067953519487359365960000014901509704520284038_">
	</g>
	<g id="Layer_2_3_">
		<g class="st0">
			<linearGradient id="SVGID_1_" gradientUnits="userSpaceOnUse" x1="-24.0487" y1="393.4119" x2="1045.5687" y2="400.639">
				<stop  offset="0" style="stop-color:#FFFFFF"/>
				<stop  offset="0" style="stop-color:#FEFDFB"/>
				<stop  offset="0" style="stop-color:#FCF6F0"/>
				<stop  offset="0" style="stop-color:#F8EADD"/>
				<stop  offset="0" style="stop-color:#F2D9C2"/>
				<stop  offset="0" style="stop-color:#EBC39F"/>
				<stop  offset="0" style="stop-color:#E2A975"/>
				<stop  offset="0" style="stop-color:#E2A873"/>
				<stop  offset="1" style="stop-color:#D16C6D"/>
			</linearGradient>
			<path class="st4" d="M-15.4,394.7c1.7,0,1.7-2.5,0-2.5C-17.1,392.2-17.1,394.7-15.4,394.7L-15.4,394.7z"/>
		</g>
		<g>
			<g class="st0">
				<g class="st2">
					<g>
						
							<linearGradient id="SVGID_00000060029605365884508670000009989099931286623381_" gradientUnits="userSpaceOnUse" x1="-28.2392" y1="1013.6023" x2="1041.3783" y2="1020.8295">
							<stop  offset="0" style="stop-color:#FFFFFF"/>
							<stop  offset="0" style="stop-color:#FEFDFB"/>
							<stop  offset="0" style="stop-color:#FCF6F0"/>
							<stop  offset="0" style="stop-color:#F8EADD"/>
							<stop  offset="0" style="stop-color:#F2D9C2"/>
							<stop  offset="0" style="stop-color:#EBC39F"/>
							<stop  offset="0" style="stop-color:#E2A975"/>
							<stop  offset="0" style="stop-color:#E2A873"/>
							<stop  offset="1" style="stop-color:#D16C6D"/>
						</linearGradient>
						<path style="fill:url(#SVGID_00000060029605365884508670000009989099931286623381_);" d="M89.6,1029.7
							c-4.6,4.2-10.6,6.2-17,6.2c-16.7,0-23.7-10.6-23.8-21.4c-0.1-10.8,7.6-21.8,23.8-21.8c6.1,0,11.9,2.1,16.5,6.3l-5.6,5
							c-2.9-2.7-6.9-3.9-10.8-3.9c-10.8,0-15.5,7.5-15.4,14.4c0.1,6.9,4.4,14,15.4,14c3.9,0,8.3-1.5,11.3-4.2L89.6,1029.7z"/>
						
							<linearGradient id="SVGID_00000031169836992991244410000016728485836371204788_" gradientUnits="userSpaceOnUse" x1="-28.2352" y1="1013.0094" x2="1041.3823" y2="1020.2366">
							<stop  offset="0" style="stop-color:#FFFFFF"/>
							<stop  offset="0" style="stop-color:#FEFDFB"/>
							<stop  offset="0" style="stop-color:#FCF6F0"/>
							<stop  offset="0" style="stop-color:#F8EADD"/>
							<stop  offset="0" style="stop-color:#F2D9C2"/>
							<stop  offset="0" style="stop-color:#EBC39F"/>
							<stop  offset="0" style="stop-color:#E2A975"/>
							<stop  offset="0" style="stop-color:#E2A873"/>
							<stop  offset="1" style="stop-color:#D16C6D"/>
						</linearGradient>
						<path style="fill:url(#SVGID_00000031169836992991244410000016728485836371204788_);" d="M183.3,1014.5
							c-0.1,10.7-7.2,21.4-23,21.4s-23.1-10.5-23.1-21.4s7.6-21.8,23.1-21.8C175.7,992.7,183.4,1003.6,183.3,1014.5z M145.6,1014.6
							c0.2,6.8,4.2,14.1,14.7,14.1c10.6,0,14.5-7.3,14.7-14.1c0.1-7-4.1-14.8-14.7-14.8C149.7,999.8,145.4,1007.7,145.6,1014.6z"/>
						
							<linearGradient id="SVGID_00000166652652100917110410000012459401504453232553_" gradientUnits="userSpaceOnUse" x1="-28.2307" y1="1012.3521" x2="1041.3867" y2="1019.5793">
							<stop  offset="0" style="stop-color:#FFFFFF"/>
							<stop  offset="0" style="stop-color:#FEFDFB"/>
							<stop  offset="0" style="stop-color:#FCF6F0"/>
							<stop  offset="0" style="stop-color:#F8EADD"/>
							<stop  offset="0" style="stop-color:#F2D9C2"/>
							<stop  offset="0" style="stop-color:#EBC39F"/>
							<stop  offset="0" style="stop-color:#E2A975"/>
							<stop  offset="0" style="stop-color:#E2A873"/>
							<stop  offset="1" style="stop-color:#D16C6D"/>
						</linearGradient>
						<path style="fill:url(#SVGID_00000166652652100917110410000012459401504453232553_);" d="M273.5,1004.9l-14.6,18h-1.7
							l-14.3-18v30.1h-8.5v-41.4h9.7l14,17.8l14-17.8h9.7v41.4h-8.5L273.5,1004.9L273.5,1004.9z"/>
						
							<linearGradient id="SVGID_00000004537306391002946430000002973958426088266661_" gradientUnits="userSpaceOnUse" x1="-28.2261" y1="1011.6758" x2="1041.3914" y2="1018.9029">
							<stop  offset="0" style="stop-color:#FFFFFF"/>
							<stop  offset="0" style="stop-color:#FEFDFB"/>
							<stop  offset="0" style="stop-color:#FCF6F0"/>
							<stop  offset="0" style="stop-color:#F8EADD"/>
							<stop  offset="0" style="stop-color:#F2D9C2"/>
							<stop  offset="0" style="stop-color:#EBC39F"/>
							<stop  offset="0" style="stop-color:#E2A975"/>
							<stop  offset="0" style="stop-color:#E2A873"/>
							<stop  offset="1" style="stop-color:#D16C6D"/>
						</linearGradient>
						<path style="fill:url(#SVGID_00000004537306391002946430000002973958426088266661_);" d="M355.9,1022.7h-12.7v12.2h-8.5v-41.4
							c7.1,0,14.1-0.1,21.1-0.1C377.8,993.5,377.9,1022.7,355.9,1022.7z M343.2,1015.6h12.7c10.8,0,10.8-14.7,0-14.7h-12.7V1015.6z"
							/>
						
							<linearGradient id="SVGID_00000143578968993519059170000002762519265568798867_" gradientUnits="userSpaceOnUse" x1="-28.2223" y1="1011.1128" x2="1041.3951" y2="1018.34">
							<stop  offset="0" style="stop-color:#FFFFFF"/>
							<stop  offset="0" style="stop-color:#FEFDFB"/>
							<stop  offset="0" style="stop-color:#FCF6F0"/>
							<stop  offset="0" style="stop-color:#F8EADD"/>
							<stop  offset="0" style="stop-color:#F2D9C2"/>
							<stop  offset="0" style="stop-color:#EBC39F"/>
							<stop  offset="0" style="stop-color:#E2A975"/>
							<stop  offset="0" style="stop-color:#E2A873"/>
							<stop  offset="1" style="stop-color:#D16C6D"/>
						</linearGradient>
						<path style="fill:url(#SVGID_00000143578968993519059170000002762519265568798867_);" d="M454.8,1027.1h-23.5l-3.8,7.8h-9.2
							l20.1-41.4h9.2l20.1,41.4h-9.2L454.8,1027.1z M443.1,1002.2l-8.3,17.6h16.7L443.1,1002.2z"/>
						
							<linearGradient id="SVGID_00000177458504779886110450000007463472328354941332_" gradientUnits="userSpaceOnUse" x1="-28.2174" y1="1010.3809" x2="1041.4" y2="1017.608">
							<stop  offset="0" style="stop-color:#FFFFFF"/>
							<stop  offset="0" style="stop-color:#FEFDFB"/>
							<stop  offset="0" style="stop-color:#FCF6F0"/>
							<stop  offset="0" style="stop-color:#F8EADD"/>
							<stop  offset="0" style="stop-color:#F2D9C2"/>
							<stop  offset="0" style="stop-color:#EBC39F"/>
							<stop  offset="0" style="stop-color:#E2A975"/>
							<stop  offset="0" style="stop-color:#E2A873"/>
							<stop  offset="1" style="stop-color:#D16C6D"/>
						</linearGradient>
						<path style="fill:url(#SVGID_00000177458504779886110450000007463472328354941332_);" d="M546,993.5h8.5v41.5h-5.3v0.1
							l-23.6-28v27.9h-8.5v-41.4h6.9l22,25.7L546,993.5L546,993.5z"/>
						
							<linearGradient id="SVGID_00000024690455693989500270000001807409054367715770_" gradientUnits="userSpaceOnUse" x1="-28.2131" y1="1009.7444" x2="1041.4043" y2="1016.9716">
							<stop  offset="0" style="stop-color:#FFFFFF"/>
							<stop  offset="0" style="stop-color:#FEFDFB"/>
							<stop  offset="0" style="stop-color:#FCF6F0"/>
							<stop  offset="0" style="stop-color:#F8EADD"/>
							<stop  offset="0" style="stop-color:#F2D9C2"/>
							<stop  offset="0" style="stop-color:#EBC39F"/>
							<stop  offset="0" style="stop-color:#E2A975"/>
							<stop  offset="0" style="stop-color:#E2A873"/>
							<stop  offset="1" style="stop-color:#D16C6D"/>
						</linearGradient>
						<path style="fill:url(#SVGID_00000024690455693989500270000001807409054367715770_);" d="M626,1010.6l11.9-17.1h10.2v0.4
							l-17.9,24v17.1h-8.5v-17.1l-17.2-24v-0.4h10.1L626,1010.6z"/>
						
							<linearGradient id="SVGID_00000082329679638078748360000010367870626470282899_" gradientUnits="userSpaceOnUse" x1="-28.2101" y1="1009.2944" x2="1041.4073" y2="1016.5216">
							<stop  offset="0" style="stop-color:#FFFFFF"/>
							<stop  offset="0" style="stop-color:#FEFDFB"/>
							<stop  offset="0" style="stop-color:#FCF6F0"/>
							<stop  offset="0" style="stop-color:#F8EADD"/>
							<stop  offset="0" style="stop-color:#F2D9C2"/>
							<stop  offset="0" style="stop-color:#EBC39F"/>
							<stop  offset="0" style="stop-color:#E2A975"/>
							<stop  offset="0" style="stop-color:#E2A873"/>
							<stop  offset="1" style="stop-color:#D16C6D"/>
						</linearGradient>
						<path style="fill:url(#SVGID_00000082329679638078748360000010367870626470282899_);" d="M705.1,993.5v34.2h23.1v7.2h-31.5
							v-41.4H705.1z"/>
						
							<linearGradient id="SVGID_00000044147045940428920740000000609882660423375508_" gradientUnits="userSpaceOnUse" x1="-28.206" y1="1008.6957" x2="1041.4115" y2="1015.9229">
							<stop  offset="0" style="stop-color:#FFFFFF"/>
							<stop  offset="0" style="stop-color:#FEFDFB"/>
							<stop  offset="0" style="stop-color:#FCF6F0"/>
							<stop  offset="0" style="stop-color:#F8EADD"/>
							<stop  offset="0" style="stop-color:#F2D9C2"/>
							<stop  offset="0" style="stop-color:#EBC39F"/>
							<stop  offset="0" style="stop-color:#E2A975"/>
							<stop  offset="0" style="stop-color:#E2A873"/>
							<stop  offset="1" style="stop-color:#D16C6D"/>
						</linearGradient>
						<path style="fill:url(#SVGID_00000044147045940428920740000000609882660423375508_);" d="M821.8,1014.5
							c-0.1,10.7-7.2,21.4-23,21.4c-15.8,0-23.1-10.5-23.1-21.4s7.6-21.8,23.1-21.8C814.2,992.7,821.9,1003.6,821.8,1014.5z
							 M784,1014.6c0.2,6.8,4.2,14.1,14.7,14.1c10.6,0,14.5-7.3,14.7-14.1c0.1-7-4.1-14.8-14.7-14.8
							C788.2,999.8,783.8,1007.7,784,1014.6z"/>
						
							<linearGradient id="SVGID_00000133486830162682115250000006501148068110094265_" gradientUnits="userSpaceOnUse" x1="-28.2005" y1="1007.8765" x2="1041.417" y2="1015.1036">
							<stop  offset="0" style="stop-color:#FFFFFF"/>
							<stop  offset="0" style="stop-color:#FEFDFB"/>
							<stop  offset="0" style="stop-color:#FCF6F0"/>
							<stop  offset="0" style="stop-color:#F8EADD"/>
							<stop  offset="0" style="stop-color:#F2D9C2"/>
							<stop  offset="0" style="stop-color:#EBC39F"/>
							<stop  offset="0" style="stop-color:#E2A975"/>
							<stop  offset="0" style="stop-color:#E2A873"/>
							<stop  offset="1" style="stop-color:#D16C6D"/>
						</linearGradient>
						<path style="fill:url(#SVGID_00000133486830162682115250000006501148068110094265_);" d="M906.2,1003.6
							c-3-2.7-7.5-4.1-11.4-4.1c-9.6,0-15.4,6.7-15.4,15.3c0,6.8,4.3,13.8,15.4,13.8c3.5,0,6.6-0.7,10.1-3.3v-7.3h-11.5v-7h19.2
							v17.5c-4.4,4.7-10,7.5-17.9,7.5c-16.9,0-23.7-10.2-23.7-21.1c0-11.7,7.9-22.4,23.7-22.4c6,0,12,2.1,16.7,6.3L906.2,1003.6z"/>
						
							<linearGradient id="SVGID_00000126283622722210410030000015131478180098325911_" gradientUnits="userSpaceOnUse" x1="-28.1975" y1="1007.434" x2="1041.4199" y2="1014.6611">
							<stop  offset="0" style="stop-color:#FFFFFF"/>
							<stop  offset="0" style="stop-color:#FEFDFB"/>
							<stop  offset="0" style="stop-color:#FCF6F0"/>
							<stop  offset="0" style="stop-color:#F8EADD"/>
							<stop  offset="0" style="stop-color:#F2D9C2"/>
							<stop  offset="0" style="stop-color:#EBC39F"/>
							<stop  offset="0" style="stop-color:#E2A975"/>
							<stop  offset="0" style="stop-color:#E2A873"/>
							<stop  offset="1" style="stop-color:#D16C6D"/>
						</linearGradient>
						<path style="fill:url(#SVGID_00000126283622722210410030000015131478180098325911_);" d="M1008.5,1014.5
							c-0.1,10.7-7.2,21.4-23,21.4c-15.8,0-23.1-10.5-23.1-21.4s7.6-21.8,23.1-21.8C1000.9,992.7,1008.6,1003.6,1008.5,1014.5z
							 M970.8,1014.6c0.2,6.8,4.2,14.1,14.7,14.1c10.6,0,14.5-7.3,14.7-14.1c0.1-7-4.1-14.8-14.7-14.8
							C974.9,999.8,970.6,1007.7,970.8,1014.6z"/>
					</g>
					<g>
						
							<linearGradient id="SVGID_00000102537310762586660450000010187608713139637139_" gradientUnits="userSpaceOnUse" x1="-28.7383" y1="1087.4775" x2="1040.8792" y2="1094.7047">
							<stop  offset="0" style="stop-color:#FFFFFF"/>
							<stop  offset="0" style="stop-color:#FEFDFB"/>
							<stop  offset="0" style="stop-color:#FCF6F0"/>
							<stop  offset="0" style="stop-color:#F8EADD"/>
							<stop  offset="0" style="stop-color:#F2D9C2"/>
							<stop  offset="0" style="stop-color:#EBC39F"/>
							<stop  offset="0" style="stop-color:#E2A975"/>
							<stop  offset="0" style="stop-color:#E2A873"/>
							<stop  offset="1" style="stop-color:#D16C6D"/>
						</linearGradient>
						<path style="fill:url(#SVGID_00000102537310762586660450000010187608713139637139_);" d="M337.8,1075.9h-12.9v-2.2h28.4v2.2
							h-12.9v30.5h-2.7V1075.9z"/>
						
							<linearGradient id="SVGID_00000034073079979377053920000009553524240543184793_" gradientUnits="userSpaceOnUse" x1="-28.7357" y1="1087.0853" x2="1040.8818" y2="1094.3125">
							<stop  offset="0" style="stop-color:#FFFFFF"/>
							<stop  offset="0" style="stop-color:#FEFDFB"/>
							<stop  offset="0" style="stop-color:#FCF6F0"/>
							<stop  offset="0" style="stop-color:#F8EADD"/>
							<stop  offset="0" style="stop-color:#F2D9C2"/>
							<stop  offset="0" style="stop-color:#EBC39F"/>
							<stop  offset="0" style="stop-color:#E2A975"/>
							<stop  offset="0" style="stop-color:#E2A873"/>
							<stop  offset="1" style="stop-color:#D16C6D"/>
						</linearGradient>
						<path style="fill:url(#SVGID_00000034073079979377053920000009553524240543184793_);" d="M422.4,1106.4l-3.9-8.1h-21.2
							l-3.9,8.1h-2.9l16-32.8h3l16,32.8H422.4z M417.4,1096l-9.6-20l-9.6,20H417.4z"/>
						
							<linearGradient id="SVGID_00000183963462448570151760000002327606271731690121_" gradientUnits="userSpaceOnUse" x1="-28.7318" y1="1086.5122" x2="1040.8856" y2="1093.7394">
							<stop  offset="0" style="stop-color:#FFFFFF"/>
							<stop  offset="0" style="stop-color:#FEFDFB"/>
							<stop  offset="0" style="stop-color:#FCF6F0"/>
							<stop  offset="0" style="stop-color:#F8EADD"/>
							<stop  offset="0" style="stop-color:#F2D9C2"/>
							<stop  offset="0" style="stop-color:#EBC39F"/>
							<stop  offset="0" style="stop-color:#E2A975"/>
							<stop  offset="0" style="stop-color:#E2A873"/>
							<stop  offset="1" style="stop-color:#D16C6D"/>
						</linearGradient>
						<path style="fill:url(#SVGID_00000183963462448570151760000002327606271731690121_);" d="M491.9,1079.6
							c-3.1-2.8-7.4-4.2-11.4-4.2c-10.4,0-15.7,7-15.7,14.6c0,7.7,5.3,14.4,15.7,14.4c3.8,0,7.8-1.2,10.8-3.8v-9.2h-12.4v-2.2h15
							v12.3c-3.7,3.4-8.1,5.3-13.4,5.3c-12.1,0-18.3-7.8-18.3-16.7c-0.1-10.3,7.5-17,18.3-17c4.7,0,9.4,1.6,13,4.9L491.9,1079.6z"/>
						
							<linearGradient id="SVGID_00000106851759076811146520000001445246221449439873_" gradientUnits="userSpaceOnUse" x1="-28.7294" y1="1086.1511" x2="1040.8881" y2="1093.3783">
							<stop  offset="0" style="stop-color:#FFFFFF"/>
							<stop  offset="0" style="stop-color:#FEFDFB"/>
							<stop  offset="0" style="stop-color:#FCF6F0"/>
							<stop  offset="0" style="stop-color:#F8EADD"/>
							<stop  offset="0" style="stop-color:#F2D9C2"/>
							<stop  offset="0" style="stop-color:#EBC39F"/>
							<stop  offset="0" style="stop-color:#E2A975"/>
							<stop  offset="0" style="stop-color:#E2A873"/>
							<stop  offset="1" style="stop-color:#D16C6D"/>
						</linearGradient>
						<path style="fill:url(#SVGID_00000106851759076811146520000001445246221449439873_);" d="M539.6,1073.6v30.4h20v2.4h-22.8
							v-32.8H539.6z"/>
						
							<linearGradient id="SVGID_00000017495064969558936420000010776666568161383298_" gradientUnits="userSpaceOnUse" x1="-28.7265" y1="1085.7219" x2="1040.891" y2="1092.9491">
							<stop  offset="0" style="stop-color:#FFFFFF"/>
							<stop  offset="0" style="stop-color:#FEFDFB"/>
							<stop  offset="0" style="stop-color:#FCF6F0"/>
							<stop  offset="0" style="stop-color:#F8EADD"/>
							<stop  offset="0" style="stop-color:#F2D9C2"/>
							<stop  offset="0" style="stop-color:#EBC39F"/>
							<stop  offset="0" style="stop-color:#E2A975"/>
							<stop  offset="0" style="stop-color:#E2A873"/>
							<stop  offset="1" style="stop-color:#D16C6D"/>
						</linearGradient>
						<path style="fill:url(#SVGID_00000017495064969558936420000010776666568161383298_);" d="M600.4,1106.4v-32.8h2.7v32.8H600.4z
							"/>
						
							<linearGradient id="SVGID_00000176753476793632185220000014623229153138997938_" gradientUnits="userSpaceOnUse" x1="-28.7238" y1="1085.3254" x2="1040.8937" y2="1092.5525">
							<stop  offset="0" style="stop-color:#FFFFFF"/>
							<stop  offset="0" style="stop-color:#FEFDFB"/>
							<stop  offset="0" style="stop-color:#FCF6F0"/>
							<stop  offset="0" style="stop-color:#F8EADD"/>
							<stop  offset="0" style="stop-color:#F2D9C2"/>
							<stop  offset="0" style="stop-color:#EBC39F"/>
							<stop  offset="0" style="stop-color:#E2A975"/>
							<stop  offset="0" style="stop-color:#E2A873"/>
							<stop  offset="1" style="stop-color:#D16C6D"/>
						</linearGradient>
						<path style="fill:url(#SVGID_00000176753476793632185220000014623229153138997938_);" d="M647.7,1073.6l23.9,27.2v-27.2h2.7
							v32.8h-1.1l-24-27.1v27.1h-2.7v-32.8H647.7z"/>
						
							<linearGradient id="SVGID_00000158001300072951048810000014878457464245227423_" gradientUnits="userSpaceOnUse" x1="-28.7206" y1="1084.8549" x2="1040.8969" y2="1092.082">
							<stop  offset="0" style="stop-color:#FFFFFF"/>
							<stop  offset="0" style="stop-color:#FEFDFB"/>
							<stop  offset="0" style="stop-color:#FCF6F0"/>
							<stop  offset="0" style="stop-color:#F8EADD"/>
							<stop  offset="0" style="stop-color:#F2D9C2"/>
							<stop  offset="0" style="stop-color:#EBC39F"/>
							<stop  offset="0" style="stop-color:#E2A975"/>
							<stop  offset="0" style="stop-color:#E2A873"/>
							<stop  offset="1" style="stop-color:#D16C6D"/>
						</linearGradient>
						<path style="fill:url(#SVGID_00000158001300072951048810000014878457464245227423_);" d="M720.5,1088.7h20.8v2.3h-20.8v12.9
							h22.5v2.4h-25.1v-32.8h24.5v2.4h-21.9V1088.7z"/>
					</g>
				</g>
			</g>
			
				<linearGradient id="SVGID_00000074413433072188922110000005627816469753291694_" gradientUnits="userSpaceOnUse" x1="-24.8164" y1="507.0365" x2="1044.801" y2="514.2637">
				<stop  offset="0" style="stop-color:#FFFFFF"/>
				<stop  offset="0" style="stop-color:#FEFDFB"/>
				<stop  offset="0" style="stop-color:#FCF6F0"/>
				<stop  offset="0" style="stop-color:#F8EADD"/>
				<stop  offset="0" style="stop-color:#F2D9C2"/>
				<stop  offset="0" style="stop-color:#EBC39F"/>
				<stop  offset="0" style="stop-color:#E2A975"/>
				<stop  offset="0" style="stop-color:#E2A873"/>
				<stop  offset="1" style="stop-color:#D16C6D"/>
			</linearGradient>
			<path style="fill:url(#SVGID_00000074413433072188922110000005627816469753291694_);" d="M990.4,726.9
				c13.4-5.1,21.8-4.7,25.4,1.1c3.5,5.8,3.7,13.8,0.6,23.9c-1.6,5.8-3.4,11.4-5.3,16.9c-2,5.4-4.1,11.1-6.5,16.9
				c-13.4,34.8-32.2,61.9-56.6,81.1c-24.4,19.2-50.7,28.9-79,28.9c-22,0-41.3-4-57.8-12c-16.5-8-30.5-18.3-41.9-31
				c-11.4-12.7-20.8-27.2-28.3-43.5c-7.5-16.3-12.8-32.8-15.9-49.5c-0.8-5.1-1.6-10-2.4-14.7c-0.8-4.7-1.6-9.6-2.4-14.7
				c-12.6,21.8-26.7,42.6-42.5,62.6c-15.7,20-33.6,37.6-53.7,52.8c-20,15.2-42.3,27.4-66.6,36.5c-24.4,9.1-51.5,13.6-81.4,13.6
				c-51.1,0-93.1-10.7-126.2-32.1c-33-21.4-57.8-49.7-74.3-84.9c-16.5-35.2-25.4-75.3-26.5-120.3c-1.2-45,4.5-91.1,17.1-138.3
				c-25.2-8-51.1-19.4-77.8-34.3c-26.7-14.9-50.9-32.5-72.5-52.8c-21.6-20.3-39.7-42.5-54.2-66.4c-14.5-23.9-22.2-49.3-23-76.2
				c-0.8-18.1,1.6-35.2,7.1-51.2c5.5-16,13.9-28.9,25.4-38.6c11.4-9.8,25.7-15.4,43-16.9c17.3-1.4,36.9,3.3,59,14.2
				c-11.8,16.7-16.9,35.9-15.3,57.7c0.8,18.9,5.5,36.8,14.2,53.9c8.6,17.1,19.8,32.8,33.6,47.4c13.7,14.5,28.9,27.8,45.4,39.7
				s33,22.3,49.5,31c26.7-57.3,59.7-105.9,99.1-145.9c39.3-39.9,80.8-71.7,124.4-95.3c43.6-23.6,87.6-39.9,132.1-49
				c44.4-9.1,85.5-12.1,123.2-9.3c36.1,2.9,67.4,10.9,93.7,23.9c26.3,13.1,44.6,30.1,54.8,51.2c10.2,21.1,10.8,45.7,1.8,74
				c-9,28.3-31.3,58.8-66.6,91.4c-1.6,19.6-2.8,39-3.5,58.2c-0.8,19.2-1.8,36.3-2.9,51.2c-1.2,14.9-2,27.2-2.4,37
				c-0.4,9.8-0.6,15.1-0.6,15.8c-3.1,27.6-5.7,58.1-7.7,91.4c-2,33.4-2.6,64.6-1.8,93.6c0,8.7,0.4,19.4,1.2,32.1
				c0.8,12.7,2.9,24.7,6.5,35.9c3.5,11.3,9.4,20.9,17.7,28.9c8.3,8,19.8,12,34.8,12c11,0,22.2-3.4,33.6-10.3
				c11.4-6.9,20.6-15.8,27.7-26.7c4.7-8,9.2-17,13.6-27.2C983.5,750.5,987.3,739.2,990.4,726.9z M719.2,533.1
				c0-1.4,0.2-8.2,0.6-20.1c0.4-12,1.4-27,2.9-45.2C677.9,491,628,509.9,573,524.4c-55,14.5-111.6,21.1-169.8,19.6
				c-8.7,37-13.2,72.6-13.6,106.7c-0.4,34.1,3.3,64.2,11.2,90.4c7.8,26.1,20.2,46.8,37.1,62.1c16.9,15.2,38.3,22.9,64.3,22.9
				c22,0,43.4-5.3,64.3-15.8c20.8-10.5,40.3-24.1,58.4-40.8c18.1-16.7,34.8-35.7,50.1-57.2c15.3-21.4,28.9-43,40.7-64.8
				c-0.8-19.6-0.8-39,0-58.2C716.5,569.9,717.6,551.3,719.2,533.1z M734.5,296.9c1.6-17.4,6.9-31.6,15.9-42.5
				c9-10.9,20.2-18.7,33.6-23.4c13.4-4.7,27.9-6.3,43.6-4.9c15.7,1.5,30.7,6.2,44.8,14.2c-0.8,8-1.4,17.2-1.8,27.8
				c-0.4,10.5-1.4,21.6-2.9,33.2c11.8-18.9,17.5-36.5,17.1-52.8c-0.4-16.3-5.5-30.3-15.3-41.9c-9.8-11.6-23.8-20.7-41.9-27.2
				c-18.1-6.5-38.1-9.8-60.1-9.8c-26.7,0-56,5.1-87.8,15.2c-31.8,10.2-63.5,26.9-94.9,50.1c-31.4,23.2-61.1,54.1-89,92.5
				c-27.9,38.5-51.7,86.4-71.3,143.7c25.9,4.4,52.3,6.2,79,5.4c26.7-0.7,53.1-3.6,79-8.7c25.9-5.1,51.1-12,75.5-20.7
				c24.4-8.7,47.2-18.5,68.4-29.4c1.6-20.3,2.9-40.8,4.1-61.5C731.6,335.5,733,315.8,734.5,296.9z"/>
		</g>
	</g>
</g>
</svg>
